<?xml version="1.0" encoding="utf-8"?>
<!-- Generator: Adobe Illustrator 19.0.0, SVG Export Plug-In . SVG Version: 6.00 Build 0)  -->
<svg version="1.1" xmlns="http://www.w3.org/2000/svg" xmlns:xlink="http://www.w3.org/1999/xlink" x="0px" y="0px"
	 viewBox="0 0 376 484" style="enable-background:new 0 0 376 484;" xml:space="preserve">
<style type="text/css">
	.st0{fill:none;stroke:#1DEA95;stroke-width:1.4173229;stroke-miterlimit:10;}
	.st1{fill:none;stroke:#404041;stroke-width:2.1259842;stroke-miterlimit:10;}
	.st2{fill:none;stroke:#404041;stroke-width:0.2834646;stroke-miterlimit:10;}
	.st3{fill:none;stroke:#404041;stroke-width:1.4173229;stroke-miterlimit:10;}
	.st4{fill:#404041;}
	.st5{font-family:'HelveticaNeue-Bold';}
	.st6{font-size:11.338583px;}
	.st7{fill:none;stroke:#404041;stroke-width:0.7086614;stroke-miterlimit:10;}
	.st8{fill:none;stroke:#404041;stroke-width:0.7086614;stroke-miterlimit:10;stroke-dasharray:5.7437668,5.7437668;}
	.st9{font-family:'HelveticaNeue';}
	.st10{font-size:8.5039368px;}
	.st11{fill:#1DEA95;}
	.st12{fill:#FFFFFF;}
</style>
<g id="Layer_2">
</g>
<g id="Layer_5">
	<line id="XMLID_65_" class="st0" x1="213.6666718" y1="27.2657337" x2="213.6666718" y2="106.5"/>
	<line id="XMLID_68_" class="st0" x1="278.5" y1="168.6666718" x2="327.9650269" y2="168.6666718"/>
	<line id="XMLID_69_" class="st0" x1="112" y1="158.3333282" x2="29.363636" y2="158.3333282"/>
	<line id="XMLID_70_" class="st0" x1="303.2325134" y1="292.3333435" x2="327.9650269" y2="292.3333435"/>
	<line id="XMLID_71_" class="st0" x1="268.3333435" y1="338" x2="268.3333435" y2="448.244751"/>
	<line id="XMLID_72_" class="st0" x1="198.5998077" y1="382" x2="198.5998077" y2="448.244751"/>
	<line id="XMLID_73_" class="st0" x1="112" y1="347.5" x2="35.6437073" y2="390.9437256"/>
</g>
<g id="Layer_3">
	<path id="XMLID_2_" class="st1" d="M327.9650269,448.244751H119.8534164
		c-49.9761276,0-90.4897766-40.5136414-90.4897766-90.4897766V27.2657337h298.6013794V448.244751z"/>
</g>
<g id="Layer_3_copy">
	<path id="XMLID_3_" class="st2" d="M327.9650269,423.7071228H145.7867126
		c-42.2785797,0-76.5521469-34.2735901-76.5521469-76.5521545V65.375h258.7304688V423.7071228z"/>
	<polyline id="XMLID_44_" class="st3" points="278.5,193.0817871 278.5,106.5 112,106.5 112,193.0817871 	"/>
	<polyline id="XMLID_18_" class="st3" points="112,197.0817871 112,347.5 162,347.5 162,382 226,382 226,252.5 278.5,252.5 
		278.5,197.0817871 	"/>
	<line id="XMLID_6_" class="st3" x1="162" y1="359.5" x2="226" y2="359.5"/>
	<rect id="XMLID_5_" x="226" y="252.5" class="st3" width="77" height="85.5"/>
	<g id="XMLID_31_">
		<path id="XMLID_32_" class="st4" d="M115.5119476,196.8974609c-0.0947266,0.1987305-0.2080078,0.3876953-0.340332,0.5668945
			c-0.1323242,0.1796875-0.28125,0.3383789-0.4462891,0.4750977c-0.1655273,0.137207-0.3520508,0.2456055-0.5600586,0.3256836
			c-0.2080078,0.0805664-0.4301758,0.1206055-0.6660156,0.1206055c-0.2929688,0-0.5600586-0.0493164-0.8007812-0.1489258
			c-0.2412109-0.0991211-0.4770508-0.2099609-0.7084961-0.3330078c-0.2319336-0.1225586-0.4726562-0.2338867-0.7231445-0.3330078
			s-0.53125-0.1489258-0.8432617-0.1489258c-0.1606445,0-0.2998047,0.0307617-0.4179688,0.0922852
			s-0.2270508,0.1396484-0.3261719,0.2338867c-0.0991211,0.0947266-0.184082,0.203125-0.2548828,0.3261719
			c-0.0708008,0.1225586-0.1347656,0.2456055-0.1914062,0.3681641l-0.8081055-1.1762695
			c0.065918-0.1982422,0.1655273-0.387207,0.2978516-0.5668945c0.1323242-0.1791992,0.2856445-0.3378906,0.4604492-0.4746094
			c0.1748047-0.137207,0.3686523-0.2456055,0.5810547-0.3261719c0.2128906-0.0800781,0.4370117-0.1206055,0.6733398-0.1206055
			c0.2270508,0,0.4726562,0.0498047,0.7373047,0.1489258c0.2641602,0.0991211,0.5288086,0.2104492,0.793457,0.3330078
			c0.2646484,0.1230469,0.5244141,0.2338867,0.7797852,0.3330078c0.2548828,0.0991211,0.4907227,0.1489258,0.7084961,0.1489258
			c0.1416016,0,0.2714844-0.0307617,0.3896484-0.0922852c0.1181641-0.0610352,0.2270508-0.1391602,0.3261719-0.2338867
			c0.0991211-0.0942383,0.1914062-0.2026367,0.2763672-0.3256836c0.0849609-0.1225586,0.1699219-0.2456055,0.2548828-0.3686523
			L115.5119476,196.8974609z"/>
	</g>
	<g id="XMLID_23_">
		<path id="XMLID_24_" class="st4" d="M115.5119476,192.8974609c-0.0947266,0.1987305-0.2080078,0.3876953-0.340332,0.5668945
			c-0.1323242,0.1796875-0.28125,0.3383789-0.4462891,0.4750977c-0.1655273,0.137207-0.3520508,0.2456055-0.5600586,0.3256836
			c-0.2080078,0.0805664-0.4301758,0.1206055-0.6660156,0.1206055c-0.2929688,0-0.5600586-0.0493164-0.8007812-0.1489258
			c-0.2412109-0.0991211-0.4770508-0.2099609-0.7084961-0.3330078c-0.2319336-0.1225586-0.4726562-0.2338867-0.7231445-0.3330078
			s-0.53125-0.1489258-0.8432617-0.1489258c-0.1606445,0-0.2998047,0.0307617-0.4179688,0.0922852
			s-0.2270508,0.1396484-0.3261719,0.2338867c-0.0991211,0.0947266-0.184082,0.203125-0.2548828,0.3261719
			c-0.0708008,0.1225586-0.1347656,0.2456055-0.1914062,0.3681641l-0.8081055-1.1762695
			c0.065918-0.1982422,0.1655273-0.387207,0.2978516-0.5668945c0.1323242-0.1791992,0.2856445-0.3378906,0.4604492-0.4746094
			c0.1748047-0.137207,0.3686523-0.2456055,0.5810547-0.3261719c0.2128906-0.0800781,0.4370117-0.1206055,0.6733398-0.1206055
			c0.2270508,0,0.4726562,0.0498047,0.7373047,0.1489258c0.2641602,0.0991211,0.5288086,0.2104492,0.793457,0.3330078
			c0.2646484,0.1230469,0.5244141,0.2338867,0.7797852,0.3330078c0.2548828,0.0991211,0.4907227,0.1489258,0.7084961,0.1489258
			c0.1416016,0,0.2714844-0.0307617,0.3896484-0.0922852c0.1181641-0.0610352,0.2270508-0.1391602,0.3261719-0.2338867
			c0.0991211-0.0942383,0.1914062-0.2026367,0.2763672-0.3256836c0.0849609-0.1225586,0.1699219-0.2456055,0.2548828-0.3686523
			L115.5119476,192.8974609z"/>
	</g>
	<g id="XMLID_20_">
		<path id="XMLID_21_" class="st4" d="M282.0783997,196.8974609c-0.09375,0.1987305-0.2070312,0.3876953-0.3398438,0.5668945
			c-0.1328125,0.1796875-0.28125,0.3383789-0.4462891,0.4750977c-0.1650391,0.137207-0.3525391,0.2456055-0.5595703,0.3256836
			c-0.2089844,0.0805664-0.4306641,0.1206055-0.6660156,0.1206055c-0.2929688,0-0.5605469-0.0493164-0.8007812-0.1489258
			c-0.2421875-0.0991211-0.4775391-0.2099609-0.7089844-0.3330078c-0.2324219-0.1225586-0.4726562-0.2338867-0.7226562-0.3330078
			c-0.2509766-0.0991211-0.53125-0.1489258-0.84375-0.1489258c-0.1601562,0-0.2998047,0.0307617-0.4179688,0.0922852
			s-0.2265625,0.1396484-0.3261719,0.2338867c-0.0996094,0.0947266-0.1835938,0.203125-0.2548828,0.3261719
			c-0.0712891,0.1225586-0.1347656,0.2456055-0.1914062,0.3681641l-0.8076172-1.1762695
			c0.0654297-0.1982422,0.1650391-0.387207,0.296875-0.5668945c0.1328125-0.1791992,0.2861328-0.3378906,0.4609375-0.4746094
			c0.1748047-0.137207,0.3691406-0.2456055,0.5810547-0.3261719c0.2128906-0.0800781,0.4365234-0.1206055,0.6728516-0.1206055
			c0.2275391,0,0.4726562,0.0498047,0.7382812,0.1489258c0.2636719,0.0991211,0.5283203,0.2104492,0.7929688,0.3330078
			c0.2646484,0.1230469,0.5244141,0.2338867,0.7792969,0.3330078c0.2558594,0.0991211,0.4912109,0.1489258,0.7089844,0.1489258
			c0.1416016,0,0.2714844-0.0307617,0.3896484-0.0922852c0.1181641-0.0610352,0.2275391-0.1391602,0.3261719-0.2338867
			c0.0986328-0.0942383,0.1914062-0.2026367,0.2763672-0.3256836c0.0849609-0.1225586,0.1699219-0.2456055,0.2548828-0.3686523
			L282.0783997,196.8974609z"/>
	</g>
	<g id="XMLID_4_">
		<path id="XMLID_17_" class="st4" d="M282.0783997,192.8974609c-0.09375,0.1987305-0.2070312,0.3876953-0.3398438,0.5668945
			c-0.1328125,0.1796875-0.28125,0.3383789-0.4462891,0.4750977c-0.1650391,0.137207-0.3525391,0.2456055-0.5595703,0.3256836
			c-0.2089844,0.0805664-0.4306641,0.1206055-0.6660156,0.1206055c-0.2929688,0-0.5605469-0.0493164-0.8007812-0.1489258
			c-0.2421875-0.0991211-0.4775391-0.2099609-0.7089844-0.3330078c-0.2324219-0.1225586-0.4726562-0.2338867-0.7226562-0.3330078
			c-0.2509766-0.0991211-0.53125-0.1489258-0.84375-0.1489258c-0.1601562,0-0.2998047,0.0307617-0.4179688,0.0922852
			s-0.2265625,0.1396484-0.3261719,0.2338867c-0.0996094,0.0947266-0.1835938,0.203125-0.2548828,0.3261719
			c-0.0712891,0.1225586-0.1347656,0.2456055-0.1914062,0.3681641l-0.8076172-1.1762695
			c0.0654297-0.1982422,0.1650391-0.387207,0.296875-0.5668945c0.1328125-0.1791992,0.2861328-0.3378906,0.4609375-0.4746094
			c0.1748047-0.137207,0.3691406-0.2456055,0.5810547-0.3261719c0.2128906-0.0800781,0.4365234-0.1206055,0.6728516-0.1206055
			c0.2275391,0,0.4726562,0.0498047,0.7382812,0.1489258c0.2636719,0.0991211,0.5283203,0.2104492,0.7929688,0.3330078
			c0.2646484,0.1230469,0.5244141,0.2338867,0.7792969,0.3330078c0.2558594,0.0991211,0.4912109,0.1489258,0.7089844,0.1489258
			c0.1416016,0,0.2714844-0.0307617,0.3896484-0.0922852c0.1181641-0.0610352,0.2275391-0.1391602,0.3261719-0.2338867
			c0.0986328-0.0942383,0.1914062-0.2026367,0.2763672-0.3256836c0.0849609-0.1225586,0.1699219-0.2456055,0.2548828-0.3686523
			L282.0783997,192.8974609z"/>
	</g>
	<text id="XMLID_11_" transform="matrix(1 0 0 1 145.5208588 16.5)" class="st4 st5 st6">90° 0″ 0′ 22.4m</text>
	<text id="XMLID_12_" transform="matrix(1 0 0 1 189.6088867 468.5)" class="st4 st5 st6">90° 0″ 0′ 14m</text>
	<text id="XMLID_13_" transform="matrix(4.489659e-11 -1 1 4.489659e-11 18.1313477 257.3354492)" class="st4 st5 st6">00° 0″ 0′ 25m</text>
	<text id="XMLID_14_" transform="matrix(4.489659e-11 -1 1 4.489659e-11 348.6313477 257.3354492)" class="st4 st5 st6">00° 0″ 0′ 25m</text>
	<g id="XMLID_15_">
		<g id="XMLID_26_">
			<line id="XMLID_29_" class="st7" x1="29.3636322" y1="52.5" x2="32.198288" y2="52.5"/>
			<line id="XMLID_28_" class="st8" x1="37.9420471" y1="52.5" x2="322.2585144" y2="52.5"/>
			<line id="XMLID_27_" class="st7" x1="325.1304016" y1="52.5" x2="327.9650269" y2="52.5"/>
		</g>
	</g>
	<text id="XMLID_16_" transform="matrix(1 0 0 1 168.8933411 45)" class="st4 st9 st10">E 2m</text>
	<text id="XMLID_43_" transform="matrix(1 0 0 1 118.8038712 198.4423828)" class="st4 st9 st10">-1.5m</text>
	<text id="XMLID_45_" transform="matrix(1 0 0 1 285.803894 198.4423828)" class="st4 st9 st10">-1.5m</text>
</g>
<g id="Layer_6">
	<g id="XMLID_76_">
		<rect id="XMLID_74_" x="194.5" y="58.0340157" class="st11" width="38.3333321" height="16.666666"/>
		<text id="XMLID_75_" transform="matrix(1 0 0 1 201.5402069 68.8163757)" class="st12 st5 st10">6.00m</text>
	</g>
	<g id="XMLID_77_">
		<rect id="XMLID_79_" x="284.0658569" y="160.3333282" class="st11" width="38.3333321" height="16.666666"/>
		<text id="XMLID_78_" transform="matrix(1 0 0 1 291.1060486 171.1156921)" class="st12 st5 st10">3.79m</text>
	</g>
	<g id="XMLID_80_">
		<rect id="XMLID_82_" x="50.8991776" y="150" class="st11" width="38.3333321" height="16.666666"/>
		<text id="XMLID_81_" transform="matrix(1 0 0 1 57.9393768 160.7823486)" class="st12 st5 st10">6.16m</text>
	</g>
	<g id="XMLID_101_">
		<rect id="XMLID_103_" x="54.6551857" y="360.8885193" class="st11" width="38.3333321" height="16.666666"/>
		<text id="XMLID_102_" transform="matrix(1 0 0 1 61.6953888 371.6708679)" class="st12 st5 st10">6.21m</text>
	</g>
	<g id="XMLID_104_">
		<rect id="XMLID_106_" x="177.8218536" y="404.0552063" class="st11" width="38.3333321" height="16.666666"/>
		<text id="XMLID_105_" transform="matrix(1 0 0 1 184.8620605 414.8375244)" class="st12 st5 st10">5.00m</text>
	</g>
	<g id="XMLID_107_">
		<rect id="XMLID_109_" x="248.4885101" y="381.0552063" class="st11" width="38.3333321" height="16.666666"/>
		<text id="XMLID_108_" transform="matrix(1 0 0 1 255.528717 391.8375244)" class="st12 st5 st10">8.21m</text>
	</g>
	<g id="XMLID_110_">
		<rect id="XMLID_112_" x="326.9885254" y="284" class="st11" width="38.3333321" height="16.666666"/>
		<text id="XMLID_111_" transform="matrix(1 0 0 1 334.028717 294.7823486)" class="st12 st5 st10">6.00m</text>
	</g>
</g>
</svg>
