<svg xmlns="http://www.w3.org/2000/svg" width="708.502" height="146" viewBox="0 0 708.502 146"><g fill="#30251d"><path d="M209.576 78.927l-25.576-78.803h-4.274l14.472 45.124 11.607 36.193h8.421v-2.515h-4.65v.001zm-21.179 2.514h13.7l-25.827-80.438-26.644 77.924h-6.787v2.515h21.176v-2.515h-11.123l10.056-29.786h24.57l9.49 29.786h-8.61v2.514h-.001zm-24.633-34.814l11.625-34.06h.254l11.058 34.06h-22.937zM274.993 1.067v2.513h9.301v55.552h-.188l-34.188-58.065h-4.837l42.479 72.644v-70.131h7.667v-2.513h-20.234zm-33.998 0h-13.385v2.513h7.668v75.347h-7.668v2.515h20.676v-2.515h-9.742v-73.022h.189l44.87 75.537h3.958v-.692l-46.566-79.683zM536.412 3.58v-2.513h-11.502v80.375h11.502v-2.515h-6.977v-75.347h6.977zm-26.521-2.513v2.513h6.977v75.347h-6.977v2.515h11.502v-80.375h-11.502zM75.913 1.067h11.5v80.437h-11.5v-2.577h6.975v-75.347h-6.975v-2.513zM132.029 68.181v13.323h-41.097v-80.437h16.15v2.513h-11.625v75.347h30.791l3.269-10.746h2.512zM51.845 5.214c3.518 4.022 5.781 9.552 5.781 16.527 0 7.604-2.515 13.322-6.348 17.218 7.102-3.455 10.558-9.426 10.558-16.904 0-7.164-3.394-13.133-9.991-16.841zm-51.845-4.147v2.513h6.976v75.347h-6.976v2.515h11.501v-80.375h-11.501zm37.078.125h-.315c-1.13-.062-2.262-.125-3.394-.125h-18.288v80.375h15.146v-2.515h-10.683v-36.51h13.951c1.005 0 1.948 0 2.891-.063h.189c8.797-1.006 17.469-7.604 17.469-20.613 0-12.819-8.358-19.355-16.966-20.549zm-6.6 38.648h-10.934v-36.26h12.003c12.066 0 17.029 7.541 17.029 18.475.001 13.951-5.53 17.785-18.098 17.785zM439.949 1.067h25.891v80.374h-13.197v-2.514h8.736v-75.347h-15.647l-3.205 10.746h-2.578v-13.259zM495.314 1.067v13.259h-2.578l-3.267-10.746h-15.586v75.347h8.736v2.514h-13.197v-80.374h25.892zM430.775 78.864l-25.576-78.803h-4.273l26.143 81.38h8.355v-2.577h-4.649zm-21.179 2.577h13.701l-25.828-80.5-26.645 77.923h-6.787v2.577h21.178v-2.577h-11.186l10.117-29.723h24.572l9.488 29.723h-8.611v2.577h.001zm-24.631-34.877l11.625-34.06h.252l11.061 34.06h-22.938zM654.207 1.067h-13.385v2.513h7.731v75.347h-7.731v2.577h20.739v-2.577h-9.805v-73.022h.252l44.869 75.599h3.959v-.692l-46.629-79.745zM688.268 1.067v2.513h9.298v55.615h-.248l-34.125-58.128h-4.838l42.481 72.706v-70.193h7.666v-2.513h-20.234zM573.613 3.267c-10.936 6.283-18.916 19.857-18.916 38.018s7.98 31.671 18.916 38.019c-8.674-8.044-13.135-23.126-13.135-38.019.001-18.915 5.657-31.358 13.135-38.018zM589.291 0h-.314c-12.066.251-24.822 13.133-24.822 41.285 0 26.834 12.441 41.036 24.822 41.287h.314c12.002-.251 24.822-13.197 24.822-41.287 0-26.895-12.445-41.034-24.822-41.285zm-.191 80.812c-12.881 0-19.037-9.11-19.037-39.526 0-30.477 6.156-39.526 19.037-39.526 12.947 0 19.105 9.049 19.105 39.526 0 30.415-6.158 39.526-19.105 39.526zM604.748 3.203c8.672 8.045 13.135 23.126 13.135 38.082 0 19.04-5.719 31.546-13.383 38.208 11.123-6.285 19.229-19.921 19.229-38.208 0-18.161-8.045-31.735-18.981-38.082zM307.418 1.067h25.891v80.374h-13.197v-2.514h8.736v-75.347h-15.586l-3.266 10.746h-2.578v-13.259zM362.781 1.067v13.259h-2.576l-3.205-10.746h-15.646v75.347h8.732v2.514h-13.195v-80.374h25.89zM264.238 123.669h2.744v8.599h12.841v-8.599h2.706v21.764h-2.706v-10.659h-12.841v10.659h-2.744v-21.764zM302.307 134.612c0-6.623 4.768-11.427 11.266-11.427 6.503 0 11.31 4.804 11.31 11.427 0 6.621-4.807 11.388-11.31 11.388-6.498 0-11.266-4.767-11.266-11.388zm19.746 0c0-5.169-3.591-8.886-8.481-8.886-4.842 0-8.477 3.717-8.477 8.886s3.635 8.843 8.477 8.843c4.89 0 8.481-3.713 8.481-8.843zM344.458 123.669h2.502l8.804 13.324 8.845-13.324h2.463v21.764h-2.666v-17l-8.642 12.882-8.641-12.882v17h-2.665v-21.764zM388.385 123.669h17.119v2.502h-14.412v6.38h8.72v2.506h-8.72v7.875h15.301v2.501h-18.008v-21.764zM424.881 139.821c3.111 2.422 6.541 3.673 9.73 3.673 4.158 0 6.787-1.979 6.787-4.562 0-1.979-1.695-3.592-5.09-3.875-3.715-.282-6.662-.322-8.965-1.373-2.02-.971-3.107-2.545-3.107-4.482 0-3.354 3.268-6.016 8.436-6.016 3.68 0 7.271 1.251 10.422 3.553l-1.574 2.261c-2.705-2.179-5.695-3.272-8.805-3.272-3.432 0-5.654 1.534-5.654 3.352 0 .811.365 1.417 1.051 1.938 1.859 1.412 4.969 1.092 8.965 1.534 4.561.528 7.188 3.151 7.188 6.463 0 3.753-3.471 6.986-9.611 6.986-4.279 0-7.953-1.212-11.346-3.839l1.573-2.341z"/></g></svg>