<svg xmlns="http://www.w3.org/2000/svg" viewBox="0 0 100 100"><g fill="#565656"><circle cx="47.109" cy="17.648" r="3.413"/><ellipse cx="37.927" cy="17.27" rx="4.259" ry="5.309"/><circle cx="54.146" cy="21.062" r="3.034"/><circle cx="59.834" cy="25.234" r="2.655"/><circle cx="63.247" cy="30.922" r="2.275"/></g><path fill="#565656" d="M42.356 24.854s1.446 0 0 0c-4.342 0-6.51 2.17-6.51 5.789 0 2.895.722 5.789 3.616 8.683 3.618 3.618 9.408 7.236 9.408 12.301 0 2.894-.365 8.321-4.344 12.301-5.065 5.065-7.825 9.711-7.825 14.776 0 5.066 3.312 9.102 9.101 9.102 5.788 0 9.102-4.106 9.102-10.618s-.246-12.537 2.649-19.049c2.895-6.512 4.341-9.406 5.065-11.577.724-2.17.724-3.618.724-5.065 0-4.341-3.258-7.599-5.067-9.408-5.065-5.066-10.131-7.235-15.919-7.235z"/><path fill="none" d="M0 0h100v100H0z"/></svg>